<svg width="50" height="50" viewBox="0 0 50 50" fill="none" xmlns="http://www.w3.org/2000/svg">
<path d="M44.2058 24.0234H48.0469C49.1256 24.0234 50 24.8979 50 25.9766C50 27.0553 49.1256 27.9297 48.0469 27.9297H44.2058C43.127 27.9297 42.2526 27.0553 42.2526 25.9766C42.2526 24.8979 43.127 24.0234 44.2058 24.0234ZM1.95312 27.9297H5.79424C6.87295 27.9297 7.74736 27.0553 7.74736 25.9766C7.74736 24.8979 6.87295 24.0234 5.79424 24.0234H1.95312C0.874414 24.0234 0 24.8979 0 25.9766C0 27.0553 0.874414 27.9297 1.95312 27.9297ZM25 8.72393C26.0787 8.72393 26.9531 7.84951 26.9531 6.7708V2.92969C26.9531 1.85098 26.0787 0.976562 25 0.976562C23.9213 0.976562 23.0469 1.85098 23.0469 2.92969V6.7708C23.0469 7.84951 23.9213 8.72393 25 8.72393ZM10.0384 13.7771C10.801 14.5397 12.0378 14.5399 12.8006 13.7771C13.5634 13.0144 13.5634 11.7776 12.8006 11.0149L10.0846 8.29883C9.32178 7.53604 8.08506 7.53604 7.32236 8.29883C6.55967 9.06162 6.55957 10.2983 7.32236 11.061L10.0384 13.7771ZM39.9616 13.7771L42.6777 11.061C43.4405 10.2982 43.4405 9.06152 42.6777 8.29883C41.9149 7.53613 40.6782 7.53604 39.9155 8.29883L37.1994 11.0149C36.4366 11.7777 36.4366 13.0145 37.1994 13.7771C37.962 14.5397 39.1988 14.5399 39.9616 13.7771ZM50 37.5C50 38.5787 49.1256 39.4531 48.0469 39.4531C45.765 39.4531 2.42471 39.4531 1.95312 39.4531C0.874414 39.4531 0 38.5787 0 37.5C0 36.4213 0.874414 35.5469 1.95312 35.5469H15.4982C13.0349 33.101 11.5071 29.714 11.5071 25.9766C11.5071 18.5365 17.56 12.4837 25 12.4837C32.44 12.4837 38.4929 18.5365 38.4929 25.9766C38.4929 29.714 36.9651 33.101 34.5018 35.5469H48.0469C49.1256 35.5469 50 36.4213 50 37.5ZM24.4476 35.5469H25.5525C30.5825 35.2597 34.5867 31.0771 34.5867 25.9766C34.5867 20.6904 30.2862 16.3899 25.0001 16.3899C19.714 16.3899 15.4134 20.6904 15.4134 25.9766C15.4134 31.0771 19.4176 35.2597 24.4476 35.5469ZM40.3646 45.1172H9.63545C8.55674 45.1172 7.68232 45.9916 7.68232 47.0703C7.68232 48.149 8.55674 49.0234 9.63545 49.0234H40.3646C41.4433 49.0234 42.3177 48.149 42.3177 47.0703C42.3177 45.9916 41.4433 45.1172 40.3646 45.1172Z" fill="black"/>
</svg>
