<svg width="50" height="50" viewBox="0 0 50 50" fill="none" xmlns="http://www.w3.org/2000/svg">
<path d="M2.83508 35.8615H47.3321C48.3471 35.8615 49.1693 35.0365 49.1693 34.0244V6.85268C49.1693 5.83488 48.3471 5.0127 47.3321 5.0127H2.83508C1.82011 5.0127 0.997932 5.83488 0.997932 6.85268V34.0244C0.995097 35.0365 1.82011 35.8615 2.83508 35.8615ZM4.67507 8.68983H45.4921V32.1872H4.67507V8.68983Z" fill="#030104"/>
<path d="M49.8668 41.0215L49.0191 37.4351C48.8915 36.8822 48.3953 36.491 47.8283 36.491H2.15185C1.57916 36.491 1.08585 36.885 0.958267 37.4407L0.136085 41.0016C0.0481969 41.1689 0 41.356 0 41.5573V43.7602C0 44.4406 0.547176 44.9878 1.22477 44.9878H48.7724C49.4472 44.9878 50 44.4435 50 43.7602V41.5601C49.9972 41.3674 49.949 41.1859 49.8668 41.0215ZM18.8138 44.1968L19.3468 41.6764H29.5617L30.6617 44.1968H18.8138ZM2.06396 40.7436L2.80109 37.9312H47.1932L48.1345 40.7436H2.06396Z" fill="#030104"/>
</svg>
