<svg width="50" height="50" viewBox="0 0 50 50" fill="none" xmlns="http://www.w3.org/2000/svg">
<path d="M24.9973 41.7361C24.055 41.7361 23.2911 42.5 23.2911 43.4423V48.2934C23.2911 49.2356 24.055 49.9996 24.9973 49.9996C25.9398 49.9996 26.7035 49.2356 26.7035 48.2934V43.4423C26.7035 42.4998 25.9396 41.7361 24.9973 41.7361Z" fill="black"/>
<path d="M24.9973 8.26468C25.9398 8.26468 26.7035 7.50076 26.7035 6.55848V1.70694C26.7035 0.764657 25.9398 0.000732422 24.9973 0.000732422C24.055 0.000732422 23.2911 0.764657 23.2911 1.70694V6.55848C23.2911 7.50076 24.055 8.26468 24.9973 8.26468Z" fill="black"/>
<path d="M10.7534 36.8333L7.32189 40.263C6.65533 40.9291 6.6551 42.0095 7.32121 42.6758C7.65448 43.0091 8.09127 43.1758 8.52806 43.1758C8.96462 43.1758 9.40096 43.0093 9.73424 42.6765L13.1658 39.2468C13.8323 38.5807 13.8325 37.5003 13.1664 36.834C12.4999 36.1674 11.4197 36.1674 10.7534 36.8333Z" fill="black"/>
<path d="M38.0388 13.6648C38.4754 13.6648 38.912 13.4983 39.2452 13.1653L42.6763 9.73557C43.3426 9.06924 43.3428 7.9891 42.6767 7.32254C42.0104 6.65598 40.9303 6.65576 40.2637 7.32231L36.8327 10.752C36.1663 11.4181 36.1661 12.4985 36.8322 13.1648C37.1653 13.4983 37.602 13.6648 38.0388 13.6648Z" fill="black"/>
<path d="M8.26349 25.0004C8.26349 24.0581 7.49957 23.2942 6.55729 23.2942H1.70621C0.763925 23.2942 0 24.0581 0 25.0004C0 25.9427 0.763925 26.7066 1.70621 26.7066H6.55729C7.49957 26.7066 8.26349 25.9427 8.26349 25.0004Z" fill="black"/>
<path d="M48.2938 23.2942H43.4404C42.4979 23.2942 41.7342 24.0581 41.7342 25.0004C41.7342 25.9427 42.4979 26.7066 43.4404 26.7066H48.2938C49.2363 26.7066 50 25.9427 50 25.0004C50 24.0583 49.2363 23.2942 48.2938 23.2942Z" fill="black"/>
<path d="M10.753 13.1652C11.086 13.4983 11.5228 13.6648 11.9594 13.6648C12.3959 13.6648 12.8327 13.4983 13.1658 13.1652C13.8321 12.4989 13.8321 11.4185 13.1658 10.7522L9.73607 7.3225C9.06974 6.65617 7.98937 6.65617 7.32326 7.3225C6.65693 7.98883 6.65693 9.0692 7.32326 9.7353L10.753 13.1652Z" fill="black"/>
<path d="M39.2473 36.8338C38.5809 36.1675 37.5006 36.1673 36.8342 36.8336C36.1677 37.4999 36.1677 38.5803 36.834 39.2464L40.2632 42.6761C40.5965 43.0094 41.0331 43.1759 41.4699 43.1759C41.9064 43.1759 42.3432 43.0094 42.6763 42.6763C43.3428 42.01 43.3428 40.9296 42.6765 40.2635L39.2473 36.8338Z" fill="black"/>
<path d="M24.9991 11.7202C17.6767 11.7202 11.7196 17.6778 11.7196 25.0006C11.7196 32.3232 17.6767 38.2806 24.9991 38.2806C32.3221 38.2806 38.2797 32.3232 38.2797 25.0006C38.2797 17.6778 32.3219 11.7202 24.9991 11.7202ZM24.9991 34.8682C19.5584 34.8682 15.132 30.4416 15.132 25.0006C15.132 19.5594 19.5584 15.1326 24.9991 15.1326C30.4405 15.1326 34.8673 19.5594 34.8673 25.0006C34.8673 30.4416 30.4405 34.8682 24.9991 34.8682Z" fill="black"/>
</svg>
