<svg width="50" height="50" viewBox="0 0 50 50" fill="none" xmlns="http://www.w3.org/2000/svg">
<g clip-path="url(#clip0)">
<path d="M34.9867 13.2934C34.7376 20.4828 31.1885 27.1561 25.3666 31.3817C19.5447 35.6072 12.1001 36.9133 5.18749 34.9218C4.52712 34.7282 3.81542 34.9559 3.38999 35.4968C2.97221 36.0214 2.91642 36.7478 3.24916 37.3301C7.68086 45.1724 15.9971 50.0156 25.005 50.0001C25.2867 50.0001 25.57 49.9951 25.8525 49.9859C37.3402 49.5941 47.0804 41.4195 49.459 30.174C51.8377 18.9284 46.2418 7.51001 35.8967 2.50007C35.294 2.20611 34.5729 2.30911 34.0767 2.76007C33.5672 3.21806 33.3868 3.93954 33.6208 4.58341C34.6284 7.37281 35.0921 10.3295 34.9867 13.2934ZM48.2958 26.3468C47.5385 38.3565 37.8201 47.8474 25.7958 48.3201C17.1186 48.6369 8.98963 44.0857 4.72416 36.5226C12.1309 38.6568 20.1079 37.2574 26.3459 32.7296C32.5839 28.2017 36.3864 21.0511 36.6525 13.3476C36.7646 10.1651 36.2601 6.99095 35.1667 4.00008C43.6635 8.1041 48.847 16.9268 48.2958 26.3468Z" fill="black"/>
<path d="M44.5917 20.9999C45.3934 25.0367 44.979 29.2206 43.4008 33.0216C43.2273 33.448 43.4323 33.9343 43.8587 34.1079C44.2852 34.2814 44.7715 34.0764 44.945 33.6499C46.6472 29.5442 47.0927 25.0257 46.225 20.6666C46.1654 20.3748 45.9548 20.137 45.6723 20.0427C45.3899 19.9484 45.0786 20.0119 44.8557 20.2094C44.6327 20.4068 44.5321 20.7082 44.5917 20.9999Z" fill="black"/>
<path d="M43.3375 17C43.5285 17.4119 44.014 17.5952 44.4295 17.4122C44.845 17.2292 45.0376 16.7473 44.8625 16.3283C44.4488 15.3824 43.9678 14.4673 43.4234 13.59C43.2659 13.3369 42.9853 13.1871 42.6874 13.197C42.3895 13.2069 42.1195 13.3749 41.9791 13.6378C41.8387 13.9008 41.8492 14.2186 42.0067 14.4717C42.51 15.2817 42.9547 16.1266 43.3375 17Z" fill="black"/>
<path d="M15.8333 25.0001C20.8959 25.0001 25 20.896 25 15.8334C25 10.7708 20.8959 6.66675 15.8333 6.66675C10.7707 6.66675 6.66666 10.7708 6.66666 15.8334C6.67263 20.8936 10.7732 24.9941 15.8333 25.0001ZM15.8333 8.33341C19.9755 8.33341 23.3333 11.6913 23.3333 15.8334C23.3333 19.9756 19.9755 23.3334 15.8333 23.3334C11.6912 23.3334 8.33332 19.9756 8.33332 15.8334C8.33837 11.6934 11.6933 8.33847 15.8333 8.33341Z" fill="black"/>
<path d="M10.8333 16.6667C11.2935 16.6667 11.6666 16.2936 11.6666 15.8333C11.6694 13.5333 13.5333 11.6694 15.8333 11.6667C16.2935 11.6667 16.6666 11.2936 16.6666 10.8333C16.6666 10.3731 16.2935 10 15.8333 10C12.6132 10.0037 10.0036 12.6132 9.99997 15.8333C9.99997 16.2936 10.3731 16.6667 10.8333 16.6667Z" fill="black"/>
<path d="M15.8333 5C16.2936 5 16.6667 4.6269 16.6667 4.16667V0.833333C16.6667 0.373096 16.2936 0 15.8333 0C15.3731 0 15 0.373096 15 0.833333V4.16667C15 4.6269 15.3731 5 15.8333 5Z" fill="black"/>
<path d="M16.6667 30.8334V27.5001C16.6667 27.0398 16.2936 26.6667 15.8333 26.6667C15.3731 26.6667 15 27.0398 15 27.5001V30.8334C15 31.2936 15.3731 31.6667 15.8333 31.6667C16.2936 31.6667 16.6667 31.2936 16.6667 30.8334Z" fill="black"/>
<path d="M26.6667 15.8333C26.6667 16.2936 27.0398 16.6667 27.5 16.6667H30.8333C31.2936 16.6667 31.6667 16.2936 31.6667 15.8333C31.6667 15.3731 31.2936 15 30.8333 15H27.5C27.0398 15 26.6667 15.3731 26.6667 15.8333Z" fill="black"/>
<path d="M0.833318 16.6667H4.16665C4.62689 16.6667 4.99999 16.2936 4.99999 15.8333C4.99999 15.3731 4.62689 15 4.16665 15H0.833318C0.373081 15 -1.52588e-05 15.3731 -1.52588e-05 15.8333C-1.52588e-05 16.2936 0.373081 16.6667 0.833318 16.6667Z" fill="black"/>
<path d="M6.99499 8.17332C7.32197 8.48913 7.84173 8.48461 8.16317 8.16317C8.48462 7.84173 8.48913 7.32197 8.17332 6.99499L5.81582 4.63749C5.48884 4.32168 4.96909 4.3262 4.64764 4.64764C4.3262 4.96909 4.32168 5.48884 4.63749 5.81582L6.99499 8.17332Z" fill="black"/>
<path d="M26.44 27.2734C26.777 27.2734 27.0808 27.0703 27.2097 26.759C27.3387 26.4476 27.2674 26.0893 27.0292 25.8509L24.6717 23.4934C24.3447 23.1776 23.8249 23.1822 23.5035 23.5036C23.182 23.825 23.1775 24.3448 23.4933 24.6718L25.8508 27.0293C26.0071 27.1856 26.219 27.2734 26.44 27.2734Z" fill="black"/>
<path d="M24.0834 8.41675C24.3043 8.4167 24.5163 8.32887 24.6725 8.17258L27.03 5.81508C27.2467 5.60586 27.3335 5.29602 27.2573 5.00466C27.181 4.7133 26.9535 4.48577 26.6621 4.4095C26.3708 4.33324 26.0609 4.42012 25.8517 4.63675L23.4933 6.99508C23.2556 7.2336 23.1847 7.59178 23.3138 7.90284C23.4429 8.2139 23.7466 8.41668 24.0834 8.41675Z" fill="black"/>
<path d="M5.81585 27.0293L8.17335 24.6718C8.48916 24.3448 8.48464 23.825 8.1632 23.5036C7.84175 23.1822 7.322 23.1776 6.99502 23.4934L4.63751 25.8509C4.42088 26.0602 4.334 26.37 4.41027 26.6614C4.48653 26.9527 4.71407 27.1803 5.00543 27.2565C5.29678 27.3328 5.60662 27.2459 5.81585 27.0293Z" fill="black"/>
</g>
<defs>
<clipPath id="clip0">
<rect width="50" height="50" fill="white"/>
</clipPath>
</defs>
</svg>
