<svg width="20" height="20" viewBox="0 0 20 20" fill="none" xmlns="http://www.w3.org/2000/svg">
<path fill-rule="evenodd" clip-rule="evenodd" d="M10.1406 0C7.54046 0 7.21414 0.0117119 6.1929 0.0595869C5.17365 0.107667 4.47792 0.273894 3.86916 0.517789C3.23946 0.769698 2.7053 1.10667 2.17314 1.65508C1.64057 2.20328 1.31346 2.75353 1.06812 3.402C0.830759 4.0293 0.669195 4.7462 0.623318 5.79575C0.577642 6.84776 0.565674 7.18412 0.565674 9.86265C0.565674 12.5412 0.577243 12.8763 0.623518 13.9283C0.670391 14.9783 0.831756 15.695 1.06832 16.3221C1.31306 16.9707 1.64018 17.521 2.17254 18.0692C2.70451 18.6178 3.23866 18.9556 3.86797 19.2075C4.47712 19.4514 5.17305 19.6176 6.1921 19.6657C7.21334 19.7136 7.53947 19.7253 10.1395 19.7253C12.7398 19.7253 13.0652 19.7136 14.0864 19.6657C15.1057 19.6176 15.8022 19.4514 16.4113 19.2075C17.0408 18.9556 17.5742 18.6178 18.1062 18.0692C18.6387 17.521 18.9658 16.9707 19.2112 16.3223C19.4466 15.695 19.6081 14.9781 19.656 13.9285C19.7019 12.8765 19.7138 12.5412 19.7138 9.86265C19.7138 7.18412 19.7019 6.84797 19.656 5.79595C19.6081 4.74599 19.4466 4.0293 19.2112 3.4022C18.9658 2.75353 18.6387 2.20328 18.1062 1.65508C17.5736 1.10647 17.041 0.769492 16.4107 0.517789C15.8004 0.273894 15.1043 0.107667 14.085 0.0595869C13.0638 0.0117119 12.7386 0 10.1377 0H10.1406ZM9.28255 1.7771C9.53746 1.77669 9.82189 1.7771 10.1414 1.7771C12.6977 1.7771 13.0007 1.78655 14.0102 1.83381C14.9437 1.87778 15.4503 2.03846 15.7878 2.17345C16.2346 2.35221 16.5531 2.5659 16.888 2.9111C17.2231 3.25629 17.4305 3.58504 17.6045 4.0453C17.7355 4.39255 17.8917 4.91445 17.9342 5.87605C17.98 6.91574 17.99 7.22806 17.99 9.86015C17.99 12.4922 17.98 12.8046 17.9342 13.8443C17.8915 14.8059 17.7355 15.3278 17.6045 15.675C17.4309 16.1353 17.2231 16.463 16.888 16.808C16.5529 17.1532 16.2348 17.3669 15.7878 17.5456C15.4507 17.6812 14.9437 17.8415 14.0102 17.8855C13.0009 17.9327 12.6977 17.943 10.1414 17.943C7.58493 17.943 7.28195 17.9327 6.27268 17.8855C5.3392 17.8411 4.83257 17.6804 4.49488 17.5454C4.04809 17.3667 3.72895 17.153 3.39386 16.8078C3.05877 16.4626 2.85133 16.1346 2.6774 15.6742C2.54635 15.3269 2.39017 14.805 2.34769 13.8434C2.30181 12.8037 2.29264 12.4914 2.29264 9.85769C2.29264 7.22395 2.30181 6.91328 2.34769 5.87359C2.39037 4.91198 2.54635 4.39008 2.6774 4.04242C2.85093 3.58217 3.05877 3.25341 3.39386 2.90822C3.72895 2.56303 4.04809 2.34934 4.49488 2.17016C4.83237 2.03455 5.3392 1.87429 6.27268 1.83011C7.15589 1.78901 7.49817 1.77669 9.28255 1.77463V1.7771ZM15.2496 3.414C14.6153 3.414 14.1007 3.9435 14.1007 4.59711C14.1007 5.25051 14.6153 5.78063 15.2496 5.78063C15.8838 5.78063 16.3984 5.25051 16.3984 4.59711C16.3984 3.94371 15.8838 3.41359 15.2496 3.41359V3.414ZM10.1413 4.79774C7.42598 4.79774 5.22451 7.06553 5.22451 9.86262C5.22451 12.6597 7.42598 14.9265 10.1413 14.9265C12.8565 14.9265 15.0572 12.6597 15.0572 9.86262C15.0572 7.06553 12.8563 4.79774 10.1411 4.79774H10.1413ZM10.1398 6.57511C11.9022 6.57511 13.3312 8.0469 13.3312 9.86266C13.3312 11.6782 11.9022 13.1502 10.1398 13.1502C8.37715 13.1502 6.9484 11.6782 6.9484 9.86266C6.9484 8.0469 8.37715 6.57511 10.1398 6.57511Z" fill="#FCB300"/>
</svg>
